# xmcd
#
# Track frame offsets:
#	150
#	21069
#	39514
#	59425
#	84832
#	111967
#	127782
#	147962
#	187984
#	228972
# Disc length: 3477 seconds
# Revision: 1
# Processed by: cddbd v1.5.2PL0 Copyright (c) Steve Scherf et al.
#
# Submitted via: libkcddb 0.31
#
DISCID=760d930a
DTITLE=The Walkabouts - Prague
DYEAR=2007
DGENRE=Alternative Country
TTITLE0=Fuck Your Fear
TTITLE1=Coming Up For Air
TTITLE2=Devil In The Details
TTITLE3=Jack Candy
TTITLE4=Whisper
TTITLE5=Acetylene
TTITLE6=Good Luck Morning
TTITLE7=Grand Theft Auto
TTITLE8=Snake Mountain Blues
TTITLE9=Something's Gone Wrong Again
EXTD=
EXTT0=
EXTT1=
EXTT2=
EXTT3=
EXTT4=
EXTT5=
EXTT6=
EXTT7=
EXTT8=
EXTT9=
PLAYORDER=
